<?xml version="1.0" encoding="utf-8"?>
<!-- Generator: Adobe Illustrator 18.1.1, SVG Export Plug-In . SVG Version: 6.00 Build 0)  -->
<svg version="1.1" id="TYPEABLE" xmlns="http://www.w3.org/2000/svg" xmlns:xlink="http://www.w3.org/1999/xlink" x="0px" y="0px"
	 viewBox="0 0 371.5 66.4" style="enable-background:new 0 0 371.5 66.4;" xml:space="preserve">
<style type="text/css">
	.st0{fill:url(#SVGID_1_);}
	.st1{fill:url(#SVGID_2_);}
	.st2{fill:url(#SVGID_3_);}
	.st3{fill:url(#SVGID_4_);}
	.st4{fill:url(#SVGID_5_);}
	.st5{fill:url(#SVGID_6_);}
	.st6{fill:url(#SVGID_7_);}
	.st7{fill:url(#SVGID_8_);}
	.st8{fill:url(#SVGID_9_);}
	.st9{fill:url(#SVGID_10_);}
	.st10{fill:url(#SVGID_11_);}
	.st11{fill:url(#SVGID_12_);}
	.st12{fill:url(#SVGID_13_);}
	.st13{fill:url(#SVGID_14_);}
	.st14{fill:url(#SVGID_15_);}
	.st15{fill:url(#SVGID_16_);}
	.st16{fill:url(#SVGID_17_);}
	.st17{fill:url(#SVGID_18_);}
	.st18{fill:url(#SVGID_19_);}
	.st19{fill:url(#SVGID_20_);}
	.st20{fill:url(#SVGID_21_);}
	.st21{fill:url(#SVGID_22_);}
	.st22{fill:url(#SVGID_23_);}
	.st23{fill:url(#SVGID_24_);}
	.st24{fill:url(#SVGID_25_);}
	.st25{fill:url(#SVGID_26_);}
	.st26{fill:url(#SVGID_27_);}
	.st27{fill:url(#SVGID_28_);}
	.st28{fill:#FFFFFF;}
</style>
<g>
	<g>
		<linearGradient id="SVGID_1_" gradientUnits="userSpaceOnUse" x1="0.252" y1="7.771" x2="229.4736" y2="7.771">
			<stop  offset="0" style="stop-color:#0C9DC8"/>
			<stop  offset="1" style="stop-color:#59E4F0"/>
		</linearGradient>
		<path class="st0" d="M0.4,7.9c0-2.7,0-5.2-0.1-7.6h8.6v1.9C8,2.2,6,2.1,2.9,2.1c0,1.5-0.1,3-0.1,4.7c2.2,0,4.1,0,5.7-0.1v2.1
			C7.2,8.7,5.3,8.7,2.9,8.7c0,1.8,0,4,0.1,6.3H0.3C0.3,12.8,0.4,10.4,0.4,7.9z"/>
		<linearGradient id="SVGID_2_" gradientUnits="userSpaceOnUse" x1="0.252" y1="7.771" x2="229.4736" y2="7.771">
			<stop  offset="0" style="stop-color:#0C9DC8"/>
			<stop  offset="1" style="stop-color:#59E4F0"/>
		</linearGradient>
		<path class="st1" d="M14.2,2.2C15.7,0.8,17.5,0,19.7,0c2.3,0,4.2,0.7,5.6,2c1.4,1.4,2.2,3.2,2.2,5.4c0,2.3-0.7,4.2-2.2,5.6
			c-1.5,1.4-3.3,2.2-5.6,2.2c-2.3,0-4.2-0.7-5.6-2c-1.4-1.3-2.2-3.1-2.2-5.3C12,5.5,12.7,3.7,14.2,2.2z M23.3,3.5
			c-0.9-1-2.1-1.6-3.6-1.6c-1.5,0-2.7,0.5-3.6,1.6s-1.3,2.4-1.3,4.2s0.5,3.1,1.4,4.2s2.1,1.6,3.5,1.6c1.5,0,2.7-0.5,3.6-1.6
			c0.9-1,1.3-2.4,1.3-4.2C24.7,5.9,24.2,4.5,23.3,3.5z"/>
		<linearGradient id="SVGID_3_" gradientUnits="userSpaceOnUse" x1="0.252" y1="7.771" x2="229.4736" y2="7.771">
			<stop  offset="0" style="stop-color:#0C9DC8"/>
			<stop  offset="1" style="stop-color:#59E4F0"/>
		</linearGradient>
		<path class="st2" d="M34.2,0.3c-0.1,2.4-0.1,5.3-0.1,8.8c0,2.8,1.3,4.2,3.8,4.2c2.4,0,3.7-1.4,3.7-4.2c0-3.9,0-6.8-0.1-8.8h2.4
			C43.8,2,43.8,4,43.8,6.4c0,0.4,0,1,0,1.7c0,0.8,0,1.3,0,1.7c0,1.7-0.6,3.1-1.7,4c-1.1,0.9-2.6,1.4-4.4,1.4c-1.8,0-3.3-0.5-4.4-1.3
			c-1.2-1-1.7-2.3-1.7-4.1c0-0.4,0-0.9,0-1.7s0-1.3,0-1.7c0-1.7,0-3.7-0.1-6.1H34.2z"/>
		<linearGradient id="SVGID_4_" gradientUnits="userSpaceOnUse" x1="0.252" y1="7.771" x2="229.4736" y2="7.771">
			<stop  offset="0" style="stop-color:#0C9DC8"/>
			<stop  offset="1" style="stop-color:#59E4F0"/>
		</linearGradient>
		<path class="st3" d="M58.6,0.3h2.4c-0.1,2.4-0.1,4.9-0.1,7.6c0,2.5,0,4.9,0.1,7.1h-2.5c-3.3-5-5.9-8.9-7.9-11.6
			c0,5.2,0,9,0.1,11.6h-2.4c0.1-2.2,0.1-4.6,0.1-7.1c0-2.7,0-5.2-0.1-7.6h2.9c2.5,3.4,5,7,7.5,10.8C58.8,6.3,58.7,2.7,58.6,0.3z"/>
		<linearGradient id="SVGID_5_" gradientUnits="userSpaceOnUse" x1="0.252" y1="7.771" x2="229.4736" y2="7.771">
			<stop  offset="0" style="stop-color:#0C9DC8"/>
			<stop  offset="1" style="stop-color:#59E4F0"/>
		</linearGradient>
		<path class="st4" d="M65.6,15c0.1-2.2,0.1-4.6,0.1-7.1c0-2.7,0-5.2-0.1-7.6h4.9c2.7,0,4.8,0.6,6.3,1.7c1.5,1.2,2.3,2.9,2.3,5.1
			c0,2.5-0.8,4.4-2.3,5.8S73.1,15,70.4,15H65.6z M68.2,7.5c0,2.1,0,4,0.1,5.6c0.2,0,0.8,0,1.9,0c2,0,3.5-0.5,4.6-1.4
			c1.1-1,1.6-2.4,1.6-4.2c0-1.8-0.6-3.1-1.7-4.1c-1.1-0.9-2.6-1.3-4.7-1.3c-0.8,0-1.5,0-1.8,0C68.2,3.5,68.2,5.2,68.2,7.5z"/>
		<linearGradient id="SVGID_6_" gradientUnits="userSpaceOnUse" x1="0.252" y1="7.771" x2="229.4736" y2="7.771">
			<stop  offset="0" style="stop-color:#0C9DC8"/>
			<stop  offset="1" style="stop-color:#59E4F0"/>
		</linearGradient>
		<path class="st5" d="M81.7,15c1.9-3.9,4.1-8.8,6.6-14.8h2.5c1.8,4.9,3.8,9.8,6,14.8h-3l-1.6-4.1H86c-0.6,1.6-1.2,3-1.8,4.1H81.7z
			 M86.7,9h4.9l-2.3-6.3C89,3.5,88.1,5.6,86.7,9z"/>
		<linearGradient id="SVGID_7_" gradientUnits="userSpaceOnUse" x1="0.252" y1="7.771" x2="229.4736" y2="7.771">
			<stop  offset="0" style="stop-color:#0C9DC8"/>
			<stop  offset="1" style="stop-color:#59E4F0"/>
		</linearGradient>
		<path class="st6" d="M106.6,15h-2.8c0.1-2.2,0.2-4.8,0.2-7.6c0-1.9,0-3.6-0.1-5.2c-2.3,0-4,0-5.2,0.1l0.8-2h12.1v1.9
			c-0.8,0-2.5-0.1-5-0.1c-0.1,1.2-0.1,3-0.1,5.2C106.4,10.2,106.5,12.7,106.6,15z"/>
		<linearGradient id="SVGID_8_" gradientUnits="userSpaceOnUse" x1="0.252" y1="7.771" x2="229.4736" y2="7.771">
			<stop  offset="0" style="stop-color:#0C9DC8"/>
			<stop  offset="1" style="stop-color:#59E4F0"/>
		</linearGradient>
		<path class="st7" d="M117.5,15h-2.7c0.1-2.2,0.1-4.6,0.1-7.1c0-2.7,0-5.2-0.1-7.6h2.7c-0.1,2.4-0.1,4.9-0.1,7.6
			C117.4,10.4,117.4,12.8,117.5,15z"/>
		<linearGradient id="SVGID_9_" gradientUnits="userSpaceOnUse" x1="0.252" y1="7.771" x2="229.4736" y2="7.771">
			<stop  offset="0" style="stop-color:#0C9DC8"/>
			<stop  offset="1" style="stop-color:#59E4F0"/>
		</linearGradient>
		<path class="st8" d="M123.7,2.2c1.5-1.4,3.3-2.2,5.5-2.2c2.3,0,4.2,0.7,5.6,2c1.4,1.4,2.2,3.2,2.2,5.4c0,2.3-0.7,4.2-2.2,5.6
			c-1.5,1.4-3.3,2.2-5.6,2.2c-2.3,0-4.2-0.7-5.6-2c-1.4-1.3-2.2-3.1-2.2-5.3C121.5,5.5,122.2,3.7,123.7,2.2z M132.8,3.5
			c-0.9-1-2.1-1.6-3.6-1.6c-1.5,0-2.7,0.5-3.6,1.6s-1.3,2.4-1.3,4.2s0.5,3.1,1.4,4.2s2.1,1.6,3.5,1.6c1.5,0,2.7-0.5,3.6-1.6
			c0.9-1,1.3-2.4,1.3-4.2C134.2,5.9,133.7,4.5,132.8,3.5z"/>
		<linearGradient id="SVGID_10_" gradientUnits="userSpaceOnUse" x1="0.252" y1="7.771" x2="229.4736" y2="7.771">
			<stop  offset="0" style="stop-color:#0C9DC8"/>
			<stop  offset="1" style="stop-color:#59E4F0"/>
		</linearGradient>
		<path class="st9" d="M151.2,0.3h2.4c-0.1,2.4-0.1,4.9-0.1,7.6c0,2.5,0,4.9,0.1,7.1h-2.5c-3.3-5-5.9-8.9-7.9-11.6
			c0,5.2,0,9,0.1,11.6H141c0.1-2.2,0.1-4.6,0.1-7.1c0-2.7,0-5.2-0.1-7.6h2.9c2.5,3.4,5,7,7.5,10.8C151.3,6.3,151.3,2.7,151.2,0.3z"
			/>
		<linearGradient id="SVGID_11_" gradientUnits="userSpaceOnUse" x1="0.252" y1="7.771" x2="229.4736" y2="7.771">
			<stop  offset="0" style="stop-color:#0C9DC8"/>
			<stop  offset="1" style="stop-color:#59E4F0"/>
		</linearGradient>
		<path class="st10" d="M164.1,7.9c0-2.7,0-5.2-0.1-7.6h8.6v1.9c-0.8-0.1-2.8-0.1-5.9-0.1c0,1.5-0.1,3-0.1,4.7c2.2,0,4.1,0,5.7-0.1
			v2.1c-1.4-0.1-3.3-0.1-5.7-0.1c0,1.8,0,4,0.1,6.3h-2.7C164,12.8,164.1,10.4,164.1,7.9z"/>
		<linearGradient id="SVGID_12_" gradientUnits="userSpaceOnUse" x1="0.252" y1="7.771" x2="229.4736" y2="7.771">
			<stop  offset="0" style="stop-color:#0C9DC8"/>
			<stop  offset="1" style="stop-color:#59E4F0"/>
		</linearGradient>
		<path class="st11" d="M177.9,2.2c1.5-1.4,3.3-2.2,5.5-2.2c2.3,0,4.2,0.7,5.6,2c1.4,1.4,2.2,3.2,2.2,5.4c0,2.3-0.7,4.2-2.2,5.6
			c-1.5,1.4-3.3,2.2-5.6,2.2c-2.3,0-4.2-0.7-5.6-2c-1.4-1.3-2.2-3.1-2.2-5.3C175.7,5.5,176.4,3.7,177.9,2.2z M187,3.5
			c-0.9-1-2.1-1.6-3.6-1.6c-1.5,0-2.7,0.5-3.6,1.6s-1.3,2.4-1.3,4.2s0.5,3.1,1.4,4.2s2.1,1.6,3.5,1.6c1.5,0,2.7-0.5,3.6-1.6
			c0.9-1,1.3-2.4,1.3-4.2C188.4,5.9,187.9,4.5,187,3.5z"/>
		<linearGradient id="SVGID_13_" gradientUnits="userSpaceOnUse" x1="0.252" y1="7.771" x2="229.4736" y2="7.771">
			<stop  offset="0" style="stop-color:#0C9DC8"/>
			<stop  offset="1" style="stop-color:#59E4F0"/>
		</linearGradient>
		<path class="st12" d="M197.9,15h-2.7c0.1-2.2,0.1-4.6,0.1-7.1c0-2.7,0-5.3-0.1-7.6h4.2c1.9,0,3.3,0.3,4.4,1c1,0.7,1.6,1.7,1.6,3
			c0,0.9-0.3,1.7-0.8,2.3c-0.5,0.7-1.2,1.2-2.1,1.5c1.3,2.3,2.5,4.3,3.8,6.3l-2.8,1c-1-1.8-2.2-3.9-3.4-6.5c-0.8,0-1.5,0-2.3,0
			C197.8,11.8,197.9,13.8,197.9,15z M197.9,2.2c0,1.3-0.1,2.9-0.1,5c0.2,0,0.6,0,1.3,0c2.4,0,3.6-0.9,3.6-2.6c0-1.6-1.2-2.4-3.6-2.4
			C198.5,2.1,198.1,2.1,197.9,2.2z"/>
		<linearGradient id="SVGID_14_" gradientUnits="userSpaceOnUse" x1="0.252" y1="7.771" x2="229.4736" y2="7.771">
			<stop  offset="0" style="stop-color:#0C9DC8"/>
			<stop  offset="1" style="stop-color:#59E4F0"/>
		</linearGradient>
		<path class="st13" d="M214.4,15c1.9-3.9,4.1-8.8,6.6-14.8h2.5c1.8,4.9,3.8,9.8,6,14.8h-3l-1.6-4.1h-6.2c-0.6,1.6-1.2,3-1.8,4.1
			H214.4z M219.4,9h4.9l-2.3-6.3C221.7,3.5,220.8,5.6,219.4,9z"/>
	</g>
</g>
<g>
	<g>
		<linearGradient id="SVGID_15_" gradientUnits="userSpaceOnUse" x1="0.2485" y1="33.2029" x2="371.0381" y2="33.2029">
			<stop  offset="0" style="stop-color:#0C9DC8"/>
			<stop  offset="1" style="stop-color:#59E4F0"/>
		</linearGradient>
		<path class="st14" d="M0.2,45.4c0.2-4.1,0.3-8.1,0.3-12.1c0-4.8-0.1-9.1-0.3-12.9h9.4c4.6,0,8.2,1,10.7,2.9c2.5,2,3.8,4.8,3.8,8.7
			c0,4.1-1.3,7.4-4,9.8c-2.6,2.4-6.3,3.6-11,3.6H0.2z M6.2,32.6c0,4.3,0,7.2,0.1,8.8c0.3,0,1.2,0,2.6,0c3,0,5.2-0.8,6.9-2.3
			c1.6-1.5,2.4-3.6,2.4-6.3c0-5.6-3-8.4-9.1-8.4H6.2C6.2,25.6,6.2,28.4,6.2,32.6z"/>
		<linearGradient id="SVGID_16_" gradientUnits="userSpaceOnUse" x1="0.2485" y1="33.2029" x2="371.0381" y2="33.2029">
			<stop  offset="0" style="stop-color:#0C9DC8"/>
			<stop  offset="1" style="stop-color:#59E4F0"/>
		</linearGradient>
		<path class="st15" d="M36.1,45.4h-6.2c0.2-4.1,0.3-8.1,0.3-12.1c0-4.8-0.1-9.1-0.3-12.9h8.3c3.2,0,5.7,0.6,7.5,1.7
			c1.8,1.2,2.8,3.1,2.8,5.5c0,2.8-1.5,5-4.6,6.3c2.1,3.7,4.2,7.1,6.4,10.3L44,46.4c-1.5-2.6-3.2-6.2-5.3-10.7h-2.8
			C35.8,38.6,35.9,41.9,36.1,45.4z M35.9,24.3c0,1.4-0.1,3.9-0.1,7.5c0.2,0,0.8,0,1.5,0c3.5,0,5.3-1.3,5.3-3.8
			c0-2.5-1.8-3.7-5.3-3.7H35.9z"/>
		<linearGradient id="SVGID_17_" gradientUnits="userSpaceOnUse" x1="0.2485" y1="33.2029" x2="371.0381" y2="33.2029">
			<stop  offset="0" style="stop-color:#0C9DC8"/>
			<stop  offset="1" style="stop-color:#59E4F0"/>
		</linearGradient>
		<path class="st16" d="M61.3,20.4c-0.2,3.9-0.2,8.5-0.2,13.9c0,2.6,0.5,4.5,1.5,5.7c0.9,1,2.3,1.5,4.2,1.5c1.7,0,3-0.5,3.8-1.5
			c1-1.2,1.5-3.1,1.5-5.8c0-4.5-0.1-9.1-0.3-13.9H77c-0.2,4.1-0.3,7.6-0.3,10.3c0,0.7,0,1.7,0.1,3c0,1.3,0,2.3,0,2.9
			c0,3-0.9,5.3-2.8,6.9c-1.9,1.6-4.5,2.4-7.9,2.4c-3.4,0-6-0.8-7.8-2.3c-2-1.6-2.9-3.9-2.9-6.9c0-0.7,0-1.6,0-2.9c0-1.3,0-2.3,0-3
			c0-3.2-0.1-6.7-0.3-10.3H61.3z"/>
		<linearGradient id="SVGID_18_" gradientUnits="userSpaceOnUse" x1="0.2485" y1="33.2029" x2="371.0381" y2="33.2029">
			<stop  offset="0" style="stop-color:#0C9DC8"/>
			<stop  offset="1" style="stop-color:#59E4F0"/>
		</linearGradient>
		<path class="st17" d="M105.8,38.8c0,1.6,0.1,3.5,0.2,5.6c-2.8,0.9-6.1,1.4-9.9,1.4c-3.7,0-6.8-1.1-9.4-3.2c-2.7-2.3-4-5.2-4-8.8
			c0-4.1,1.4-7.4,4.1-9.9S93.2,20,97.6,20c3,0,5.7,0.5,8.2,1.5l-1.4,4c-2.1-0.9-4.3-1.4-6.5-1.4c-2.9,0-5.1,0.8-6.7,2.3
			c-1.5,1.6-2.3,3.7-2.3,6.5c0,2.8,0.8,5,2.3,6.6c1.5,1.6,3.4,2.3,5.6,2.3c1.2,0,2.2-0.1,3-0.3c0.1-2.6,0.1-3.9,0.1-3.8
			c0-1.5,0-2.8-0.1-3.9h6.2C105.9,36.1,105.8,37.9,105.8,38.8z"/>
		<linearGradient id="SVGID_19_" gradientUnits="userSpaceOnUse" x1="0.2485" y1="33.2029" x2="371.0381" y2="33.2029">
			<stop  offset="0" style="stop-color:#0C9DC8"/>
			<stop  offset="1" style="stop-color:#59E4F0"/>
		</linearGradient>
		<path class="st18" d="M123.5,33.5v4.9c-2.9,0-4.8-0.1-5.8-0.1c-0.9,0-2.8,0-5.9,0.1v-4.9c1.5,0,3.4,0,5.8,0
			C120.1,33.5,122,33.5,123.5,33.5z"/>
		<linearGradient id="SVGID_20_" gradientUnits="userSpaceOnUse" x1="0.2485" y1="33.2029" x2="371.0381" y2="33.2029">
			<stop  offset="0" style="stop-color:#0C9DC8"/>
			<stop  offset="1" style="stop-color:#59E4F0"/>
		</linearGradient>
		<path class="st19" d="M129.5,33.3c0-4.8-0.1-9.1-0.3-12.9h15.2v4.1c-1.5,0-4.6-0.1-9.2-0.1c0,1.3-0.1,3.5-0.1,6.6
			c3.9,0,6.9-0.1,9-0.2v4.4c-2-0.1-5-0.2-9-0.2c0,3.5,0.1,7,0.2,10.4h-6.2C129.4,41.3,129.5,37.3,129.5,33.3z"/>
		<linearGradient id="SVGID_21_" gradientUnits="userSpaceOnUse" x1="0.2485" y1="33.2029" x2="371.0381" y2="33.2029">
			<stop  offset="0" style="stop-color:#0C9DC8"/>
			<stop  offset="1" style="stop-color:#59E4F0"/>
		</linearGradient>
		<path class="st20" d="M156.1,45.4h-6.2c0.2-4.1,0.3-8.1,0.3-12.1c0-4.8-0.1-9.1-0.3-12.9h8.3c3.2,0,5.7,0.6,7.5,1.7
			c1.8,1.2,2.8,3.1,2.8,5.5c0,2.8-1.5,5-4.6,6.3c2.1,3.7,4.2,7.1,6.4,10.3l-6.3,2.3c-1.5-2.6-3.2-6.2-5.3-10.7h-2.8
			C155.8,38.6,155.9,41.9,156.1,45.4z M155.9,24.3c0,1.4-0.1,3.9-0.1,7.5c0.2,0,0.8,0,1.5,0c3.5,0,5.3-1.3,5.3-3.8
			c0-2.5-1.8-3.7-5.3-3.7H155.9z"/>
		<linearGradient id="SVGID_22_" gradientUnits="userSpaceOnUse" x1="0.2485" y1="33.2029" x2="371.0381" y2="33.2029">
			<stop  offset="0" style="stop-color:#0C9DC8"/>
			<stop  offset="1" style="stop-color:#59E4F0"/>
		</linearGradient>
		<path class="st21" d="M181.1,24.4c0,1.4-0.1,3.4-0.1,6.2c3.2,0,6.2-0.1,9-0.2v4.3c-1.7-0.1-4.7-0.2-9-0.2c0,3.1,0,5.3,0.1,6.8
			c4.6,0,8-0.1,10.3-0.2l-1.5,4.2h-14.8c0.2-4.1,0.3-8.1,0.3-12.1c0-4.8-0.1-9.1-0.3-12.9h15.2v4.1
			C188.9,24.4,185.8,24.4,181.1,24.4z"/>
		<linearGradient id="SVGID_23_" gradientUnits="userSpaceOnUse" x1="0.2485" y1="33.2029" x2="371.0381" y2="33.2029">
			<stop  offset="0" style="stop-color:#0C9DC8"/>
			<stop  offset="1" style="stop-color:#59E4F0"/>
		</linearGradient>
		<path class="st22" d="M202.8,24.4c0,1.4-0.1,3.4-0.1,6.2c3.2,0,6.2-0.1,9-0.2v4.3c-1.7-0.1-4.7-0.2-9-0.2c0,3.1,0,5.3,0.1,6.8
			c4.6,0,8-0.1,10.3-0.2l-1.5,4.2h-14.8c0.2-4.1,0.3-8.1,0.3-12.1c0-4.8-0.1-9.1-0.3-12.9H212v4.1C210.5,24.4,207.5,24.4,202.8,24.4
			z"/>
		<linearGradient id="SVGID_24_" gradientUnits="userSpaceOnUse" x1="0.2485" y1="33.2029" x2="371.0381" y2="33.2029">
			<stop  offset="0" style="stop-color:#0C9DC8"/>
			<stop  offset="1" style="stop-color:#59E4F0"/>
		</linearGradient>
		<path class="st23" d="M234.8,45.5c-3.5-10.8-6.5-19.2-8.8-25.1h6.9c1.8,5.3,3.7,11.5,5.7,18.8c1.5-4.6,2.8-8.6,4.1-12.1l-2.4-6.7
			h6.6c1.9,5.8,3.9,12.1,5.8,18.8c2-7.1,3.8-13.4,5.5-18.8h5.8c-3.3,8.7-6.2,17.1-8.9,25.1h-6.1l-4.4-13c-1.6,4.4-3,8.7-4.4,13
			H234.8z"/>
		<linearGradient id="SVGID_25_" gradientUnits="userSpaceOnUse" x1="0.2485" y1="33.2029" x2="371.0381" y2="33.2029">
			<stop  offset="0" style="stop-color:#0C9DC8"/>
			<stop  offset="1" style="stop-color:#59E4F0"/>
		</linearGradient>
		<path class="st24" d="M271.4,23.7c2.6-2.5,5.9-3.8,9.9-3.8c4.1,0,7.5,1.2,9.9,3.5s3.7,5.4,3.7,9.1c0,3.8-1.3,6.9-3.9,9.4
			c-2.5,2.5-5.8,3.7-9.8,3.7c-4.1,0-7.5-1.2-9.9-3.5c-2.5-2.3-3.7-5.3-3.7-9.1C267.6,29.4,268.9,26.2,271.4,23.7z M286.5,26.6
			c-1.3-1.7-3.1-2.5-5.3-2.5c-2.3,0-4.1,0.8-5.4,2.5c-1.2,1.6-1.8,3.7-1.8,6.3c0,2.6,0.6,4.7,1.8,6.3c1.3,1.7,3.1,2.5,5.3,2.5
			c2.3,0,4-0.8,5.3-2.5c1.2-1.6,1.8-3.7,1.8-6.3C288.4,30.3,287.8,28.2,286.5,26.6z"/>
		<linearGradient id="SVGID_26_" gradientUnits="userSpaceOnUse" x1="0.2485" y1="33.2029" x2="371.0381" y2="33.2029">
			<stop  offset="0" style="stop-color:#0C9DC8"/>
			<stop  offset="1" style="stop-color:#59E4F0"/>
		</linearGradient>
		<path class="st25" d="M306.8,45.4h-6.2c0.2-4.1,0.3-8.1,0.3-12.1c0-4.8-0.1-9.1-0.3-12.9h8.3c3.2,0,5.7,0.6,7.5,1.7
			c1.8,1.2,2.8,3.1,2.8,5.5c0,2.8-1.5,5-4.6,6.3c2.1,3.7,4.2,7.1,6.4,10.3l-6.3,2.3c-1.5-2.6-3.2-6.2-5.3-10.7h-2.8
			C306.6,38.6,306.6,41.9,306.8,45.4z M306.6,24.3c0,1.4-0.1,3.9-0.1,7.5c0.2,0,0.8,0,1.5,0c3.5,0,5.3-1.3,5.3-3.8
			c0-2.5-1.8-3.7-5.3-3.7H306.6z"/>
		<linearGradient id="SVGID_27_" gradientUnits="userSpaceOnUse" x1="0.2485" y1="33.2029" x2="371.0381" y2="33.2029">
			<stop  offset="0" style="stop-color:#0C9DC8"/>
			<stop  offset="1" style="stop-color:#59E4F0"/>
		</linearGradient>
		<path class="st26" d="M331.9,41.3c4.5,0,8-0.1,10.5-0.2l-1.5,4.3h-15c0.2-4.1,0.3-8.1,0.3-12.1c0-4.8-0.1-9.1-0.3-12.9h6.2
			c-0.2,3.9-0.2,8.2-0.2,12.9C331.8,36.8,331.8,39.5,331.9,41.3z"/>
		<linearGradient id="SVGID_28_" gradientUnits="userSpaceOnUse" x1="0.2485" y1="33.2029" x2="371.0381" y2="33.2029">
			<stop  offset="0" style="stop-color:#0C9DC8"/>
			<stop  offset="1" style="stop-color:#59E4F0"/>
		</linearGradient>
		<path class="st27" d="M347.1,45.4c0.2-4.1,0.3-8.1,0.3-12.1c0-4.8-0.1-9.1-0.3-12.9h9.4c4.6,0,8.2,1,10.7,2.9
			c2.5,2,3.8,4.8,3.8,8.7c0,4.1-1.3,7.4-4,9.8c-2.6,2.4-6.3,3.6-11,3.6H347.1z M353,32.6c0,4.3,0,7.2,0.1,8.8c0.3,0,1.2,0,2.6,0
			c3,0,5.2-0.8,6.9-2.3c1.6-1.5,2.4-3.6,2.4-6.3c0-5.6-3-8.4-9.1-8.4h-2.8C353.1,25.6,353,28.4,353,32.6z"/>
	</g>
</g>
<g>
	<path class="st28" d="M32.3,56.5c0-2.3,0-4.2-0.1-5.7h6.1v1.1c-0.6,0-2.2,0-4.7,0c0,0.9,0,2.2,0,4.1c2.1,0,3.7,0,4.6-0.1V57
		c-0.7,0-2.2-0.1-4.6-0.1c0,1.9,0,3.6,0.1,4.9h-1.4C32.3,60.4,32.3,58.7,32.3,56.5z"/>
	<path class="st28" d="M41,52.4c-0.3,0-0.5-0.1-0.6-0.2c-0.2-0.2-0.2-0.4-0.2-0.6c0-0.2,0.1-0.4,0.2-0.6c0.2-0.2,0.4-0.2,0.6-0.2
		c0.6,0,0.9,0.3,0.9,0.8C41.8,52.2,41.6,52.4,41,52.4z M41.6,58c0,1.6,0,2.8,0.1,3.8h-1.4c0-1,0.1-2.2,0.1-3.8c0-1.5,0-2.7-0.1-3.8
		h1.4C41.6,55.3,41.6,56.5,41.6,58z"/>
	<path class="st28" d="M45.4,55.5c0.7-1,1.6-1.4,2.7-1.4c0.8,0,1.4,0.2,1.9,0.7c0.4,0.5,0.7,1.2,0.7,2.1c0,0.4,0,0.8,0,1.3
		c0,0.5,0,0.8,0,1c0,1.1,0,1.9,0.1,2.6h-1.4c0-0.6,0.1-1.5,0.1-2.5c0-1.1,0-1.9,0-2.5c0-1.2-0.6-1.7-1.7-1.7c-0.9,0-1.6,0.4-2.2,1.3
		c0,0.6-0.1,1.4-0.1,2.5c0,0.9,0,1.9,0.1,2.9h-1.4c0-1,0.1-2.2,0.1-3.8c0-1.5,0-2.7-0.1-3.8h1.2L45.4,55.5z"/>
	<path class="st28" d="M59.5,50.1c0,1.6-0.1,3.6-0.1,6.1c0,2.3,0,4.2,0.1,5.7h-1.2l-0.2-1.2c-0.6,0.9-1.5,1.4-2.7,1.4
		c-0.8,0-1.5-0.3-2.1-1c-0.6-0.7-0.9-1.6-0.9-2.8c0-1.2,0.4-2.2,1.2-3s1.8-1.1,3-1.1c0.6,0,1.1,0.1,1.5,0.2c0-1.3,0-2.7-0.1-4.2
		H59.5z M54.4,60.2c0.4,0.5,0.9,0.7,1.6,0.7c0.9,0,1.6-0.4,2.2-1.3c0-0.5,0-1.1,0-1.9c0-0.9,0-1.7,0-2.4c-0.5-0.2-1-0.3-1.6-0.3
		c-0.8,0-1.4,0.3-2,0.8c-0.6,0.6-0.8,1.3-0.8,2.2C53.8,58.9,54,59.7,54.4,60.2z"/>
	<path class="st28" d="M65.8,55.2c0.7-0.8,1.6-1.2,2.8-1.2c1.2,0,2.1,0.4,2.8,1.1c0.7,0.7,1.1,1.7,1.1,2.8c0,1.2-0.4,2.1-1.1,2.9
		S69.6,62,68.5,62c-1.2,0-2.1-0.4-2.8-1.1c-0.7-0.7-1-1.6-1-2.8S65.1,56,65.8,55.2z M70.4,55.8c-0.5-0.6-1.1-0.8-1.8-0.8
		c-0.8,0-1.4,0.3-1.8,0.8C66.2,56.4,66,57.1,66,58c0,0.9,0.2,1.6,0.7,2.2c0.5,0.6,1.1,0.8,1.8,0.8c0.8,0,1.4-0.3,1.8-0.8
		c0.5-0.6,0.7-1.3,0.7-2.2C71.1,57.1,70.8,56.4,70.4,55.8z"/>
	<path class="st28" d="M76.8,62c-0.8,0-1.4-0.2-1.8-0.7c-0.5-0.5-0.7-1.2-0.7-2.1c0-0.4,0-0.8,0-1.3c0-0.5,0-0.8,0-1
		c0-1.1,0-2-0.1-2.6h1.4c0,0.6-0.1,1.5-0.1,2.5c0,1.2,0,2,0,2.4c0,1.2,0.6,1.7,1.8,1.7c0.8,0,1.5-0.4,2.1-1.3c0-0.6,0.1-1.4,0.1-2.6
		c0-0.9,0-1.8-0.1-2.8h1.4c0,0.8-0.1,2-0.1,3.5c0,1.7,0,3,0.1,4h-1.2l-0.2-1.2C78.8,61.5,77.9,62,76.8,62z"/>
	<path class="st28" d="M84.8,55.1c0,0.4,0,0.9,0,1.7c0,0.7,0,1.3,0,1.6c0,0.6,0,1,0.1,1.4c0,0.3,0.2,0.6,0.4,0.8
		c0.2,0.2,0.5,0.3,0.8,0.3c0.6,0,1-0.1,1.4-0.3l0.4,0.8c-0.5,0.4-1.2,0.6-2,0.6c-0.6,0-1.2-0.2-1.6-0.7c-0.4-0.4-0.6-1-0.6-1.8
		c0-0.4,0-1.1,0-2.1c0-1,0-1.8,0-2.2h-1.3v-0.9h1.4c0-0.8,0-1.5,0-1.9L85,52c-0.1,0.7-0.1,1.5-0.1,2.3h2.5v0.9H84.8z"/>
	<path class="st28" d="M94.2,55.1c0,0.4,0,0.9,0,1.7c0,0.7,0,1.3,0,1.6c0,0.6,0,1,0.1,1.4c0,0.3,0.2,0.6,0.4,0.8
		c0.2,0.2,0.5,0.3,0.8,0.3c0.6,0,1-0.1,1.4-0.3l0.4,0.8c-0.5,0.4-1.2,0.6-2,0.6c-0.6,0-1.2-0.2-1.6-0.7c-0.4-0.4-0.6-1-0.6-1.8
		c0-0.4,0-1.1,0-2.1c0-1,0-1.8,0-2.2h-1.3v-0.9H93c0-0.8,0-1.5,0-1.9l1.3-0.4c-0.1,0.7-0.1,1.5-0.1,2.3h2.5v0.9H94.2z"/>
	<path class="st28" d="M99.9,55.5c0.7-1,1.6-1.4,2.7-1.4c0.8,0,1.4,0.2,1.9,0.7c0.4,0.5,0.7,1.2,0.7,2.1c0,0.4,0,0.8,0,1.3
		c0,0.5,0,0.8,0,1c0,1.1,0,1.9,0.1,2.6h-1.4c0-0.9,0.1-1.7,0.1-2.5c0-1.1,0-1.9,0-2.5c0-1.1-0.6-1.7-1.7-1.7c-0.9,0-1.6,0.4-2.2,1.3
		c0,0.5-0.1,1.4-0.1,2.5c0,1,0,2,0.1,2.9h-1.4c0-1.5,0.1-3.4,0.1-5.7c0-2.5,0-4.5-0.1-6.1h1.4c0,1.5,0,2.4,0,2.7
		C99.9,54,99.9,54.9,99.9,55.5z"/>
	<path class="st28" d="M111.1,61c0.8,0,1.6-0.3,2.2-0.8l0.4,0.9c-0.8,0.6-1.7,0.9-2.9,0.9c-1.1,0-2-0.4-2.8-1.1
		c-0.8-0.8-1.1-1.8-1.1-3c0-1.2,0.3-2.1,1-2.8c0.6-0.7,1.5-1,2.6-1c1,0,1.7,0.3,2.3,0.9c0.6,0.6,0.9,1.4,0.9,2.5c0,0.3,0,0.5,0,0.6
		h-5.5C108.4,60,109.3,61,111.1,61z M108.9,55.6c-0.4,0.4-0.6,1-0.7,1.7h4.3c-0.1-0.8-0.3-1.4-0.6-1.8c-0.4-0.4-0.9-0.5-1.5-0.5
		C109.8,55,109.3,55.2,108.9,55.6z"/>
	<path class="st28" d="M123.5,61.8H122c0-1.5,0.1-3.4,0.1-5.7c0-1.9,0-3.3-0.1-4.3c-2,0-3.4,0-4.1,0l0.5-1.1h9v1.1
		c-0.6,0-1.9,0-3.9,0c0,1,0,2.4,0,4.3C123.4,58.4,123.4,60.3,123.5,61.8z"/>
	<path class="st28" d="M131.2,54.5c0.4-0.3,0.8-0.4,1.1-0.4c0.3,0,0.6,0,0.8,0.1l-0.4,1.3c-0.2-0.1-0.5-0.1-0.7-0.1
		c-0.7,0-1.4,0.4-1.9,1.2c0,0.5-0.1,1.2-0.1,2.4c0,1,0,2,0.1,2.8h-1.4c0-1,0.1-2.2,0.1-3.8c0-1.5,0-2.8-0.1-3.8h1.1l0.2,1.4
		C130.5,55.2,130.8,54.8,131.2,54.5z"/>
	<path class="st28" d="M137,62c-0.8,0-1.4-0.2-1.8-0.7c-0.5-0.5-0.7-1.2-0.7-2.1c0-0.4,0-0.8,0-1.3c0-0.5,0-0.8,0-1
		c0-1.1,0-2-0.1-2.6h1.4c0,0.6-0.1,1.5-0.1,2.5c0,1.2,0,2,0,2.4c0,1.2,0.6,1.7,1.8,1.7c0.8,0,1.5-0.4,2.1-1.3c0-0.6,0.1-1.4,0.1-2.6
		c0-0.9,0-1.8-0.1-2.8h1.4c0,0.8-0.1,2-0.1,3.5c0,1.7,0,3,0.1,4h-1.2l-0.2-1.2C139,61.5,138.2,62,137,62z"/>
	<path class="st28" d="M145.1,55.1c0,0.4,0,0.9,0,1.7c0,0.7,0,1.3,0,1.6c0,0.6,0,1,0.1,1.4c0,0.3,0.2,0.6,0.4,0.8
		c0.2,0.2,0.5,0.3,0.8,0.3c0.6,0,1-0.1,1.4-0.3l0.4,0.8c-0.5,0.4-1.2,0.6-2,0.6c-0.6,0-1.2-0.2-1.6-0.7c-0.4-0.4-0.6-1-0.6-1.8
		c0-0.4,0-1.1,0-2.1c0-1,0-1.8,0-2.2h-1.3v-0.9h1.4c0-0.8,0-1.5,0-1.9l1.3-0.4c-0.1,0.7-0.1,1.5-0.1,2.3h2.5v0.9H145.1z"/>
	<path class="st28" d="M150.8,55.5c0.7-1,1.6-1.4,2.7-1.4c0.8,0,1.4,0.2,1.9,0.7c0.4,0.5,0.7,1.2,0.7,2.1c0,0.4,0,0.8,0,1.3
		c0,0.5,0,0.8,0,1c0,1.1,0,1.9,0.1,2.6h-1.4c0-0.9,0.1-1.7,0.1-2.5c0-1.1,0-1.9,0-2.5c0-1.1-0.6-1.7-1.7-1.7c-0.9,0-1.6,0.4-2.2,1.3
		c0,0.5-0.1,1.4-0.1,2.5c0,1,0,2,0.1,2.9h-1.4c0-1.5,0.1-3.4,0.1-5.7c0-2.5,0-4.5-0.1-6.1h1.4c0,1.5,0,2.4,0,2.7
		C150.8,54,150.8,54.9,150.8,55.5z"/>
	<path class="st28" d="M168.2,61.8h-1.2l-0.2-1.2c-0.6,0.9-1.5,1.4-2.7,1.4c-0.8,0-1.5-0.3-2.1-1c-0.6-0.7-0.9-1.6-0.9-2.8
		c0-1.2,0.4-2.2,1.2-3s1.8-1.1,3-1.1c0.6,0,1.2,0.1,1.8,0.3l1.1-0.4c-0.1,1.2-0.1,2.4-0.1,3.9C168.2,59.4,168.2,60.7,168.2,61.8z
		 M163.1,60.2c0.4,0.5,0.9,0.7,1.6,0.7c0.9,0,1.6-0.4,2.2-1.3c0-0.5,0-1.1,0-1.9c0-1.2,0-2.1,0-2.4c-0.5-0.2-1-0.3-1.6-0.3
		c-0.8,0-1.4,0.3-2,0.8c-0.6,0.6-0.8,1.3-0.8,2.2C162.5,58.9,162.7,59.7,163.1,60.2z"/>
	<path class="st28" d="M170.7,50.1h1.4c0,1.5,0,2.4,0,2.7c0,1.3,0,2.2,0,2.8c0.6-1,1.5-1.4,2.6-1.4c0.9,0,1.6,0.3,2.2,0.9
		c0.6,0.7,0.9,1.6,0.9,2.7c0,1.2-0.4,2.2-1.1,3c-0.8,0.8-1.8,1.2-3.1,1.2c-1.1,0-2-0.2-2.8-0.6c0-1.2,0-3,0-5.2
		C170.8,53.5,170.8,51.5,170.7,50.1z M174.2,55.1c-0.9,0-1.6,0.4-2.2,1.3c0,0.5,0,1.1,0,1.8c0,1.4,0,2.2,0,2.6
		c0.5,0.2,1,0.3,1.6,0.3c0.8,0,1.5-0.3,2-0.8c0.5-0.6,0.8-1.3,0.8-2.3C176.4,56.1,175.7,55.1,174.2,55.1z"/>
	<path class="st28" d="M180.2,55.2c0.7-0.8,1.6-1.2,2.8-1.2c1.2,0,2.1,0.4,2.8,1.1c0.7,0.7,1.1,1.7,1.1,2.8c0,1.2-0.4,2.1-1.1,2.9
		c-0.7,0.8-1.6,1.2-2.8,1.2c-1.2,0-2.1-0.4-2.8-1.1c-0.7-0.7-1-1.6-1-2.8S179.5,56,180.2,55.2z M184.8,55.8
		c-0.5-0.6-1.1-0.8-1.8-0.8c-0.8,0-1.4,0.3-1.8,0.8c-0.5,0.6-0.7,1.3-0.7,2.2c0,0.9,0.2,1.6,0.7,2.2c0.5,0.6,1.1,0.8,1.8,0.8
		c0.8,0,1.4-0.3,1.8-0.8c0.5-0.6,0.7-1.3,0.7-2.2C185.5,57.1,185.2,56.4,184.8,55.8z"/>
	<path class="st28" d="M191.2,62c-0.8,0-1.4-0.2-1.8-0.7c-0.5-0.5-0.7-1.2-0.7-2.1c0-0.4,0-0.8,0-1.3c0-0.5,0-0.8,0-1
		c0-1.1,0-2-0.1-2.6h1.4c0,0.6-0.1,1.5-0.1,2.5c0,1.2,0,2,0,2.4c0,1.2,0.6,1.7,1.8,1.7c0.8,0,1.5-0.4,2.1-1.3c0-0.6,0.1-1.4,0.1-2.6
		c0-0.9,0-1.8-0.1-2.8h1.4c0,0.8-0.1,2-0.1,3.5c0,1.7,0,3,0.1,4H194l-0.2-1.2C193.2,61.5,192.3,62,191.2,62z"/>
	<path class="st28" d="M199.2,55.1c0,0.4,0,0.9,0,1.7c0,0.7,0,1.3,0,1.6c0,0.6,0,1,0.1,1.4c0,0.3,0.2,0.6,0.4,0.8
		c0.2,0.2,0.5,0.3,0.8,0.3c0.6,0,1-0.1,1.4-0.3l0.4,0.8c-0.5,0.4-1.2,0.6-2,0.6c-0.6,0-1.2-0.2-1.6-0.7c-0.4-0.4-0.6-1-0.6-1.8
		c0-0.4,0-1.1,0-2.1c0-1,0-1.8,0-2.2h-1.3v-0.9h1.4c0-0.8,0-1.5,0-1.9l1.3-0.4c-0.1,0.7-0.1,1.5-0.1,2.3h2.5v0.9H199.2z"/>
	<path class="st28" d="M207.1,61.8c0-1.4,0.1-3.1,0.1-5.3c0-2.3,0-4.2-0.1-5.7h3.2c2,0,3.6,0.4,4.8,1.3c1.2,0.9,1.8,2.2,1.8,3.8
		c0,1.9-0.6,3.3-1.7,4.3c-1.1,1-2.7,1.6-4.8,1.6H207.1z M208.4,56.2c0,2.1,0,3.6,0,4.6c0.2,0,0.8,0,1.8,0c3.5,0,5.2-1.5,5.2-4.6
		c0-1.4-0.5-2.5-1.4-3.2c-1-0.7-2.3-1.1-4-1.1h-1.6C208.4,52.6,208.4,54,208.4,56.2z"/>
	<path class="st28" d="M221.3,54.5c0.4-0.3,0.8-0.4,1.1-0.4c0.3,0,0.6,0,0.8,0.1l-0.4,1.3c-0.2-0.1-0.5-0.1-0.7-0.1
		c-0.7,0-1.4,0.4-1.9,1.2c0,0.5-0.1,1.2-0.1,2.4c0,1,0,2,0.1,2.8H219c0-1,0.1-2.2,0.1-3.8c0-1.5,0-2.8-0.1-3.8h1.1l0.2,1.4
		C220.5,55.2,220.9,54.8,221.3,54.5z"/>
	<path class="st28" d="M227.1,62c-0.8,0-1.4-0.2-1.8-0.7c-0.5-0.5-0.7-1.2-0.7-2.1c0-0.4,0-0.8,0-1.3c0-0.5,0-0.8,0-1
		c0-1.1,0-2-0.1-2.6h1.4c0,0.6-0.1,1.5-0.1,2.5c0,1.2,0,2,0,2.4c0,1.2,0.6,1.7,1.8,1.7c0.8,0,1.5-0.4,2.1-1.3c0-0.6,0.1-1.4,0.1-2.6
		c0-0.9,0-1.8-0.1-2.8h1.4c0,0.8-0.1,2-0.1,3.5c0,1.7,0,3,0.1,4h-1.2l-0.2-1.2C229.1,61.5,228.2,62,227.1,62z"/>
	<path class="st28" d="M233.9,60.9c-0.6-0.7-0.9-1.6-0.9-2.7c0-1.2,0.4-2.2,1.2-3s1.8-1.1,3-1.1c0.6,0,1.2,0.1,1.8,0.3l1.1-0.4
		c-0.1,0.8-0.1,2-0.1,3.6c0,0.4,0,1,0,1.6c0,0.7,0,1.2,0,1.6c0,3.1-1.4,4.6-4,4.6c-1.1,0-2-0.2-2.9-0.5l0.3-1.1
		c0.8,0.3,1.6,0.5,2.6,0.5c0.8,0,1.5-0.3,2.1-0.8c0.5-0.5,0.8-1.2,0.8-2.2c0-0.4,0-0.8-0.1-1.1c-0.6,1-1.6,1.4-2.8,1.4
		C235.2,61.8,234.5,61.5,233.9,60.9z M236.5,60.8c0.9,0,1.6-0.4,2.2-1.3c0-0.5,0-1,0-1.7c0-1.2,0-2.1,0-2.4c-0.5-0.2-1-0.3-1.6-0.3
		c-0.8,0-1.4,0.3-2,0.8c-0.6,0.6-0.8,1.3-0.8,2.2C234.3,59.8,235.1,60.8,236.5,60.8z"/>
	<path class="st28" d="M247,55.4c-0.5-0.2-1.1-0.3-1.8-0.3c-1.2,0-1.8,0.3-1.8,0.9c0,0.5,0.4,0.8,1.1,1.1l1,0.4
		c0.8,0.3,1.3,0.6,1.6,1c0.3,0.4,0.4,0.8,0.4,1.3c0,0.6-0.3,1.2-0.8,1.6c-0.5,0.4-1.2,0.6-2.1,0.6c-1.1,0-2-0.2-2.7-0.6l0.4-0.9
		c0.8,0.4,1.6,0.6,2.4,0.6c0.5,0,1-0.1,1.2-0.3c0.3-0.2,0.4-0.5,0.4-0.8c0-0.3-0.1-0.6-0.3-0.7c-0.2-0.2-0.6-0.4-1.1-0.6l-1-0.4
		c-1.1-0.5-1.7-1.2-1.7-2.1c0-0.6,0.3-1.1,0.8-1.5c0.5-0.4,1.3-0.6,2.2-0.6c0.8,0,1.5,0.1,2.2,0.4L247,55.4z"/>
</g>
</svg>
